<svg xmlns="http://www.w3.org/2000/svg" viewBox="0 0 512.005 512.005"><path d="M256.005 512c141.002 0 256-115.003 256-256S397.006 0 256.005 0s-256 115.003-256 256c0 141.002 115.002 256 256 256z" fill="#5dddd3"/><path d="M217.124 102.975c2.309 0 4.54.346 6.642.984 3.556-16.886 18.526-29.556 36.465-29.556 20.567 0 37.241 16.66 37.264 37.223a19.565 19.565 0 0 1 2.337-.143c10.268 0 18.581 8.314 18.581 18.581s-8.314 18.581-18.581 18.581a18.558 18.558 0 0 1-15.598-8.475 37.105 37.105 0 0 1-24.004 8.766 37.101 37.101 0 0 1-24.946-9.584c-4.148 5.51-10.739 9.062-18.161 9.062-12.545 0-22.72-10.175-22.72-22.72.001-12.548 10.176-22.719 22.721-22.719zm53.601 257.261c1.774 0 3.483.268 5.099.757 2.73-12.956 14.212-22.674 27.971-22.674 15.773 0 28.567 12.78 28.586 28.553a14.287 14.287 0 0 1 1.792-.111c7.875 0 14.254 6.379 14.254 14.258 0 7.875-6.379 14.254-14.254 14.254a14.238 14.238 0 0 1-11.967-6.503 28.447 28.447 0 0 1-18.41 6.725 28.455 28.455 0 0 1-19.136-7.353 17.394 17.394 0 0 1-13.935 6.951c-9.626 0-17.431-7.801-17.431-17.427s7.801-17.43 17.431-17.43zM87.992 154.419c.864 0 1.69.129 2.48.369 1.326-6.3 6.91-11.025 13.602-11.025 7.672 0 13.893 6.217 13.902 13.889a6.8 6.8 0 0 1 .873-.051 6.93 6.93 0 0 1 6.933 6.933 6.927 6.927 0 0 1-6.933 6.933 6.928 6.928 0 0 1-5.82-3.164 13.842 13.842 0 0 1-8.956 3.27c-3.58 0-6.845-1.353-9.307-3.575a8.457 8.457 0 0 1-6.776 3.381 8.475 8.475 0 0 1 0-16.95v-.01z" fill="#fff"/><path d="M463.817 101.761l-45.458-45.458L288.331 186.33l45.458 45.458 130.028-130.027z" fill="#ec4b53"/><path d="M322.644 242.933l-45.458-45.458 11.145-11.15 45.458 45.458-11.15 11.15h.005z" fill="#fff"/><path d="M322.644 242.933l-45.458-45.458-16.309 16.309c-2.979 2.974-2.974 7.843 0 10.822l34.641 34.641c2.974 2.974 7.843 2.974 10.817 0l16.309-16.309v-.005z" fill="#15bdb1"/><path d="M451.351 89.29L430.83 68.773 300.802 198.801l20.521 20.517L451.351 89.29z" fill="#ff5b61"/><path d="M463.817 101.761l-45.458-45.458 47.518-18.253 16.198 16.193-18.253 47.518h-.005z" fill="#f0b97d"/><path d="M490.176 31.505l-1.561-1.561-22.738 8.106 16.198 16.193 8.106-22.734-.005-.004z" fill="#807d7d"/><path d="M451.351 89.29L430.83 68.773l39.495-26.281 7.311 7.307-26.281 39.49h-.004z" fill="#fed198"/><g fill="#ffba1b"><path d="M365.326 277.108s1.746 7.279-11.879 18.355-25.745 13.782-25.745 13.782 2.707-12.115 13.782-25.745c11.076-13.63 18.355-11.879 18.355-11.879l3.173 2.319 2.314 3.168z"/><path d="M386.439 250.088l-1.048-69.9-43.333 43.329 20.812 52.331 23.569-25.76z"/></g><path d="M397.334 257.399l-.499.42-.508.43-.517.434-.531.443-.54.448-.545.457-.55.462-.563.467-.568.471-.577.476-.582.476-.587.485-.587.485-.596.49-.596.49-.6.485-.6.49-.605.494-.6.49-.605.49-.605.49-.6.485-.005.005-.6.485-.596.485-.596.48v.005l-.591.48-.591.471v.005l-.587.471-.577.466-.573.462-.568.457-.559.448h-.005l-.55.443-.54.434-.536.43v.005l-.522.416h-.005l-.513.411-.503.406-.494.393-.005.005-.48.383-.471.374-.453.365-.439.351h-.005l-.425.342-.411.328-.397.319-.379.305-.36.291-.346.277-.328.259-.305.249h-.005l-.291.231-.273.212-.249.199-.231.185h-.005l-.208.162-.185.148-.157.129h-.005l-.139.106-.115.092-.092.069-.065.051-.042.032-.014.009v.005l-6.148-6.148-6.152-6.148s14.618-18.457 23.496-28.946c4.633-5.473 19.436-13.63 25.089-7.335a7.373 7.373 0 0 1 .549.555c.083.097.166.199.245.296.079.102.152.203.222.309.074.106.143.212.203.319.065.106.125.217.185.333.06.111.115.226.166.342v.005l.148.351c.046.12.088.24.129.365l.115.369.097.383.079.388v.005c.023.129.042.263.06.393l.046.406.028.411.014.42-.005.425-.014.43-.028.434v.005l-.042.439-.06.443-.069.453-.083.453-.092.457-.106.462-.12.462-.125.466-.139.466-.152.467-.157.466-.166.466v.005l-.18.466-.185.466v.005l-.194.466-.203.467-.208.462h.005l-.217.457-.222.457-.231.453-.236.448-.24.443-.245.439-.254.434v.005l-.254.43-.259.425-.263.416-.268.411-.268.406-.268.393-.273.388-.277.379-.273.37-.272.36-.277.346-.277.342-.273.328-.277.314-.272.305-.277.291-.268.277-.268.268-.268.254-.259.24-.259.222-.001.001zm7.621-24.816l.263.282c-.083-.097-.175-.19-.263-.282z" fill="#20d0c2"/><path d="M370.167 281.255l-14.448-14.448a.85.85 0 0 0-1.196 0l-4.623 4.623a.85.85 0 0 0 0 1.196l14.448 14.448a.85.85 0 0 0 1.196 0l4.623-4.623a.85.85 0 0 0 0-1.196z" fill="#fff"/><path d="M388.586 237.724c-2.577 1.64-4.785 3.469-6.134 5.058-7.094 8.332-17.879 21.717-21.898 26.724-.379.471-.697.873-.947 1.187l-2.887-2.887 2.203-2.767c4.693-5.88 14.203-17.745 20.664-25.385 1.838-2.175 5.279-4.767 9.113-6.711 5.829-2.961 12.568-4.42 15.976-.624l.286.273.263.286.466.605.203.319.185.333.065.171c-4.134-2.988-11.783-.254-17.556 3.423l-.002-.005z" fill="#15bdb1"/><g fill="#ffba1b"><path d="M243.012 154.793s-7.284-1.751-18.355 11.879c-11.076 13.63-13.782 25.745-13.782 25.745s12.12-2.702 25.75-13.778c13.625-11.076 11.879-18.36 11.879-18.36l-2.319-3.168-3.168-2.319h-.005z"/><path d="M270.032 133.681l69.9 1.048-43.333 43.329-52.331-20.808 25.759-23.565.005-.004z"/></g><path d="M262.72 122.785l-.42.499-.43.508-.434.522-.443.527-.448.54-.453.545-.462.554-.466.563-.471.568-.471.573-.48.582h-.005l-.48.587-.485.591-.485.591-.49.6-.49.6-.49.605-.49.6-.49.605-.49.605-.49.605-.485.6-.485.6-.485.596-.48.596-.476.591-.476.591-.471.582-.466.577-.462.573-.457.568v.005l-.448.559-.443.55-.434.54h-.005l-.43.536v.005l-.42.522-.411.517-.402.503-.393.49-.383.48-.374.466-.365.457-.351.439-.346.425-.323.411-.319.393-.3.379h-.005l-.291.36-.273.346v.005l-.259.328h-.005l-.245.309-.231.291h-.005l-.212.268-.199.249-.18.226-.166.208-.148.185-.129.162-.111.139-.092.115-.074.092-.051.065-.032.037h-.005l-.009.014 6.148 6.148 6.152 6.152s18.457-14.618 28.946-23.496c5.473-4.633 13.63-19.436 7.335-25.089l-.272-.286c-.097-.092-.189-.18-.286-.263a4.864 4.864 0 0 0-.296-.245 7.638 7.638 0 0 0-.309-.226c-.106-.069-.212-.139-.319-.203-.111-.065-.217-.129-.333-.185a5.647 5.647 0 0 0-.342-.166l-.351-.143a3.363 3.363 0 0 0-.365-.129l-.374-.111-.379-.092-.388-.079a11.344 11.344 0 0 0-.397-.065h-.005l-.406-.046-.411-.028-.42-.014h-.425l-.43.018v-.005l-.439.032-.443.046-.448.055-.453.069-.453.083-.457.092-.462.106-.462.115-.467.129-.466.139-.471.148-.466.162-.471.166-.466.176-.466.185-.466.194-.466.203-.462.208-.462.217-.457.226-.453.231-.448.236-.448.24-.439.245-.434.249-.43.254-.425.259-.416.263-.411.263-.402.268-.397.273-.383.273-.379.273-.37.277-.36.277-.351.277-.337.273-.328.277-.319.277-.305.273-.291.273-.282.268-.263.268-.254.263-.236.259-.226.263-.008.03zm24.817-7.621l-.286-.263c.097.083.189.176.286.263z" fill="#20d0c2"/><path d="M238.864 149.948l14.448 14.448a.85.85 0 0 1 0 1.196l-4.623 4.623a.85.85 0 0 1-1.196.005l-14.452-14.448a.85.85 0 0 1 0-1.196l4.623-4.623a.85.85 0 0 1 1.196 0l.004-.005z" fill="#fff"/><path d="M282.396 131.533c-1.64 2.577-3.469 4.785-5.058 6.138-8.332 7.094-21.717 17.879-26.72 21.893-.476.383-.873.702-1.187.951l2.882 2.882c.619-.49 1.57-1.247 2.767-2.203 5.884-4.688 17.745-14.198 25.385-20.664 2.171-1.838 4.767-5.279 6.711-9.113 2.961-5.829 4.42-12.568.628-15.976l-.272-.286-.286-.263-.605-.466-.319-.203-.333-.185-.171-.069c2.988 4.138.249 11.782-3.423 17.556v.008z" fill="#15bdb1"/><path d="M309.241 229.53l-18.651-18.655-17.071 17.071c-2.559 2.559-2.559 6.739 0 9.293l9.362 9.362c2.554 2.554 6.739 2.554 9.293 0l17.071-17.071h-.004z" fill="#20d0c2"/><g fill="#fff"><path d="M235.266 345.152a6.333 6.333 0 0 1 6.332 6.332 6.336 6.336 0 1 1-6.332-6.332zm-51.855-59.647a1.265 1.265 0 1 1 0 2.532 1.265 1.265 0 1 1 0-2.532zm-22.802 6.041c1.991 0 3.607 1.617 3.607 3.607s-1.617 3.607-3.607 3.607-3.607-1.617-3.607-3.607 1.616-3.607 3.607-3.607zm-60.525 27.094a6.428 6.428 0 0 1 6.429 6.429 6.432 6.432 0 1 1-12.863 0 6.429 6.429 0 0 1 6.434-6.429zm92.588-44.447c1.94 0 3.51 1.57 3.51 3.51 0 1.935-1.57 3.51-3.51 3.51s-3.51-1.57-3.51-3.51c0-1.939 1.57-3.51 3.51-3.51zm16.374 111.89a4.679 4.679 0 0 1 4.679 4.679 4.675 4.675 0 0 1-4.679 4.679 4.679 4.679 0 1 1 0-9.358zm28.165-56.917c1.344 0 2.439 1.09 2.439 2.434s-1.09 2.439-2.439 2.439a2.435 2.435 0 0 1-2.434-2.439 2.434 2.434 0 0 1 2.434-2.434z"/><path d="M220.024 486.176a25.376 25.376 0 0 0-9.261-4.226c3.095-8.087 1.386-17.593-5.131-24.115-6.328-6.332-15.482-8.129-23.413-5.39 4.014-7.76 2.771-17.537-3.737-24.045a20.713 20.713 0 0 0-5.69-4.028c6.171-6.323 7.108-15.847 2.808-23.145a18.7 18.7 0 0 0 8.074-4.767c4.85-4.85 6.494-11.695 4.928-17.898a15.94 15.94 0 0 0 10.212-4.651 15.936 15.936 0 0 0 4.452-8.572 12.734 12.734 0 0 0 5.533-3.252c3.302-3.302 4.416-7.958 3.353-12.18 2.531-.176 4.411-.633 6.947-3.164 2.536-2.536 5.713-8.882 1.69-13.75l64.741-83.729-7.339-7.339-7.339-7.339-85.872 63.965a10.898 10.898 0 0 0-11.607 2.466 10.855 10.855 0 0 0-3.164 6.947c-4.222-1.067-8.877.051-12.175 3.353a12.692 12.692 0 0 0-3.256 5.533 15.93 15.93 0 0 0-8.572 4.453 15.95 15.95 0 0 0-4.651 10.212c-6.203-1.561-13.048.079-17.898 4.933a18.65 18.65 0 0 0-4.85 8.365c-7.173-3.755-16.226-2.67-22.313 3.27a20.544 20.544 0 0 0-4.028-5.69c-6.508-6.508-16.286-7.75-24.05-3.737 2.739-7.93.947-17.08-5.385-23.413-6.522-6.522-16.027-8.231-24.115-5.131a25.48 25.48 0 0 0-4.226-9.261 32.435 32.435 0 0 0 10.919-7.215c12.725-12.725 12.725-33.357 0-46.081-12.512-12.512-32.669-12.72-45.439-.628-.105 3.018-.17 6.038-.17 9.078 0 141.385 114.615 256 256 256 8.212 0 16.337-.393 24.35-1.15 13.57-32.558-27.925-60.788-53.116-35.592a32.417 32.417 0 0 0-7.215 10.923l.005-.01z"/></g><path d="M220.024 486.176a25.376 25.376 0 0 0-9.261-4.226c3.095-8.087 1.386-17.593-5.131-24.115-6.328-6.332-15.482-8.129-23.413-5.39 4.014-7.76 2.771-17.537-3.737-24.045a20.713 20.713 0 0 0-5.69-4.028c6.171-6.323 7.108-15.847 2.808-23.145a18.7 18.7 0 0 0 8.074-4.767c4.85-4.85 6.494-11.695 4.928-17.898a15.94 15.94 0 0 0 10.212-4.651 15.936 15.936 0 0 0 4.452-8.572 12.734 12.734 0 0 0 5.533-3.252c3.302-3.302 4.416-7.958 3.353-12.18 8.378-.577 13.635-10.6 8.637-16.914l64.741-83.729-68.187 83.166c3.755 7.219-.637 14.471-8.919 15.205 4.037 6.84-2.138 15.441-9.113 14.568 2.55 8.674-5.718 13.501-12.96 12.863 1.044 11.256-2.993 21.671-14.517 24.512 6.896 8.96 2.804 19.524-3.51 24.267 14.826 8.355 15.011 21.371 8.184 31.967 17.094-4.259 35.218 3.852 30.798 27.098 0 0 9.348 1.196 14.036 8.383 0 0 17.034-31.14 41.592-18.47 18.318 9.45 15.344 29.071 12.646 38.428a233.21 233.21 0 0 0 4.762-.406c13.57-32.558-27.925-60.788-53.116-35.592a32.417 32.417 0 0 0-7.215 10.923h.013z" fill="#dfe1e3"/><path d="M68.201 358.837c14.041 0 25.787 9.838 28.72 22.992a20.82 20.82 0 0 1 5.635-.776c8.138 0 15.182 4.67 18.604 11.478a18.837 18.837 0 0 1 10.877-3.441c10.448 0 18.918 8.471 18.918 18.918 0 3.681-1.053 7.113-2.868 10.018a26.65 26.65 0 0 1 5.104 15.713c0 4.808-1.27 9.321-3.492 13.219 10.078.42 18.119 8.72 18.119 18.9 0 3.774-1.104 7.288-3.011 10.24a11.245 11.245 0 0 1 1.533-.106c5.279 0 9.718 3.584 11.02 8.452 4.868 1.302 8.452 5.741 8.452 11.02 0 2.305-.684 4.443-1.857 6.24-60.718-17.778-112.079-57.444-144.969-109.876-.032-.268-.065-.531-.088-.804l-.365.079a254.683 254.683 0 0 1-28.161-62.792 17.91 17.91 0 0 1 2.785-.217c9.81 0 17.759 7.949 17.759 17.759 0 1.533-.194 3.025-.559 4.443 1.27-.24 2.582-.374 3.921-.374 8.669 0 16.096 5.302 19.228 12.84a29.3 29.3 0 0 1 14.688-3.921l.007-.004z" fill="#ecf0f1"/><path d="M151.052 489.548c-46.312-20.845-85.304-55.056-112.065-97.719-.032-.268-.065-.531-.088-.804l-.365.079a256.542 256.542 0 0 1-7.021-11.99 20.893 20.893 0 0 1 5.233 7.432 29.253 29.253 0 0 1 14.688-3.926c14.041 0 25.787 9.838 28.72 22.992a20.856 20.856 0 0 1 5.64-.776c8.134 0 15.182 4.67 18.6 11.478a18.841 18.841 0 0 1 10.882-3.441c10.443 0 18.914 8.471 18.914 18.918 0 3.681-1.048 7.113-2.868 10.018a26.647 26.647 0 0 1 5.099 15.713c0 4.808-1.27 9.321-3.492 13.219 10.046.416 18.069 8.669 18.119 18.808h.004zm91.651-242.342l18.517-16.96 3.898 4.291-22.415 12.669zm29.195 30.331l14.909-20.858 4.212 3.907-19.126 16.951h.005zm10.678-1.311l10.374-13.893 3.09 2.651-13.459 11.242h-.005zm-39.305-37.611l14.027-12.891 1.727 2.383-15.75 10.508h-.004z" fill="#fff"/></svg>