<svg xmlns="http://www.w3.org/2000/svg" viewBox="0 0 512 512"><path fill="#1e2e3b" d="M225.938 85.826l70.502 282.007 132.736 88.49V322.938z"/><path fill="#3c5d76" d="M82.824 322.938v133.385l132.736-88.49 70.502-282.007z"/><circle cx="256" cy="421.647" r="60.235" fill="#ffda44"/><path d="M293.647 391.529c0 18.295-9.001 36.826-26.752 55.078A156.373 156.373 0 0 1 256 456.766a156.132 156.132 0 0 1-10.895-10.159c-17.751-18.251-26.752-36.783-26.752-55.078h75.294M256 346.353l-82.824 45.176C173.176 466.824 256 512 256 512s82.824-45.176 82.824-120.471L256 346.353z" fill="#ff9811"/><path d="M256 346.353v45.176h37.647c0 18.295-9.001 36.826-26.752 55.078A156.373 156.373 0 0 1 256 456.766V512s82.824-45.176 82.824-120.471L256 346.353z" fill="#ff5023"/><path d="M338.824 391.529V120.471C338.824 45.176 256 0 256 0s-82.824 45.176-82.824 120.471V391.53h165.648z" fill="#cce9f9"/><path d="M338.824 391.529V120.471C338.824 45.176 256 0 256 0v391.529h82.824z" fill="#93c7ef"/><path fill="#1e2e3b" d="M233.412 225.882h45.176v105.412h-45.176z"/><path fill="#78b9eb" d="M173.176 346.353h165.647v45.176H173.176z"/><path fill="#5a8bb0" d="M256 346.353h82.824v45.176H256z"/></svg>