<svg xmlns="http://www.w3.org/2000/svg" viewBox="0 0 512 512"><path d="M256.001 0c141.383 0 255.998 114.615 255.998 256.001C511.999 397.385 397.384 512 256.001 512c-141.387 0-256-114.615-256-255.999C.001 114.615 114.614 0 256.001 0z" fill="#1a91a1"/><path d="M449.88 229.812c4.539 1.524 7.607 11.326 2.432 26.879-5.174 15.553-13.518 21.522-18.028 20.006-2.658-.891-3.089-1.268-6.581-2.439l.727-2.182c-3.74-5.497-4.527-14.648-1.453-23.895 3.077-9.246 9.181-16.082 15.461-18.214l.713-2.147c3.358 1.129 4.075 1.101 6.729 1.992z" fill="#ecf0f1"/><path d="M442.063 227.187c5.707 1.917 6.846 13.966 2.538 26.913-4.307 12.949-12.427 21.889-18.133 19.973-5.709-1.918-6.846-13.967-2.54-26.917 4.308-12.946 12.427-21.887 18.135-19.969z" fill="#15bdb1"/><path d="M386.052 208.05l51.614 21.543c8.942 5.271-.29 36.663-12.651 38.471l-54.485-13.343 15.522-46.671z" fill="#20d0c2"/><path d="M63.446 48.118l.103.046-.105-.039.002-.007zm2.209.968L396.13 198.594c17.246 20.972 3.58 66.925-23.477 70.578L19.132 188.948c17.837 2.923 41.23-22.857 53.507-59.771 12.282-36.918 9.019-71.651-6.984-80.091zm-48.76 139.327l-.107-.026.004-.007.103.033z" fill="#666"/><path d="M63.735 48.216c17.951 6.029 22.061 42.317 9.177 81.052-12.884 38.733-37.884 65.245-55.835 59.217-17.952-6.029-22.061-42.321-9.178-81.052 12.884-38.735 37.885-65.248 55.836-59.217z" fill="#807d7d"/><path d="M56.357 63.841c11.719 3.936 13.2 31.237 3.308 60.977-9.893 29.739-27.414 50.658-39.133 46.722-11.717-3.936-13.198-31.237-3.308-60.977 9.892-29.739 27.414-50.658 39.133-46.722z" fill="#ecf0f1"/><path d="M220.644 509.559l51.615-206.158-17.025-3.312-45.698 207.691a254.86 254.86 0 0 0 11.108 1.779zm153.319-26.315a252.674 252.674 0 0 1-11.001 5.389L302.718 303.4l17.007-3.312 54.238 183.156zm-73.22 24.851c-4.129.728-8.293 1.36-12.487 1.887l-8.344-210.296h16.723l4.108 208.409z" fill="#20d0c2"/><path d="M329.632 283.877v11.468c-1.502 14.321-85.344 10.435-82.654-1.779V279.41c-1.386 6.269 71.699 9.997 82.078 2.15.181.162.515 1.105.576 2.317z" fill="#666"/><path d="M247.868 240.855c33.738 7.657 61.17 13.401 84.953-29.373l14.622 6.811c-6.51 21.114-24.465 36.526-40.251 39.62v15.557c11.357 1.887 19.585 4.879 21.863 8.091-10.379 7.847-83.464 4.119-82.079-2.152.794-3.612 9.504-5.498 21.872-6.59V254.96c-12.118-1.617-20.359-8.902-20.98-14.105z" fill="#20d0c2"/></svg>